<svg version="1.1" viewBox="0 0 96 96" xmlns="http://www.w3.org/2000/svg" xmlns:xlink="http://www.w3.org/1999/xlink" id="Icons_MonthlyCalendar" overflow="hidden"><g><path d=" M 76 32 L 76 40 L 68 40 L 68 32 L 76 32 Z M 20 68 L 28 68 L 28 76 L 20 76 L 20 68 Z M 40 32 L 40 40 L 32 40 L 32 32 L 40 32 Z M 52 32 L 52 40 L 44 40 L 44 32 L 52 32 Z M 64 52 L 56 52 L 56 44 L 64 44 L 64 52 Z M 68 52 L 68 44 L 76 44 L 76 52 L 68 52 Z M 68 64 L 68 56 L 76 56 L 76 64 L 68 64 Z M 44 68 L 52 68 L 52 76 L 44 76 L 44 68 Z M 40 68 L 40 76 L 32 76 L 32 68 L 40 68 Z M 32 56 L 40 56 L 40 64 L 32 64 L 32 56 Z M 28 56 L 28 64 L 20 64 L 20 56 L 28 56 Z M 28 44 L 28 52 L 20 52 L 20 44 L 28 44 Z M 40 52 L 32 52 L 32 44 L 40 44 L 40 52 Z M 44 52 L 44 44 L 52 44 L 52 52 L 44 52 Z M 52 64 L 44 64 L 44 56 L 52 56 L 52 64 Z M 56 64 L 56 56 L 64 56 L 64 64 L 56 64 Z M 64 32 L 64 40 L 56 40 L 56 32 L 64 32 Z M 14 26 L 14 82 L 82 82 L 82 26 L 14 26 Z" stroke="none" stroke-width="1" stroke-dasharray="" stroke-dashoffset="1" fill="#ECF3F1" fill-opacity="1"/><rect x="14" y="14" width="68" height="8" stroke="none" stroke-width="1" stroke-dasharray="" stroke-dashoffset="1" fill="#ECF3F1" fill-opacity="1"/></g></svg>