<svg version="1.1" viewBox="0 0 96 96" xmlns="http://www.w3.org/2000/svg" xmlns:xlink="http://www.w3.org/1999/xlink" id="Icons_BooksOnShelf" overflow="hidden"><rect x="14" y="76" width="68" height="6" stroke="none" stroke-width="1" stroke-dasharray="" stroke-dashoffset="1" fill="#ECF3F1" fill-opacity="1"/><rect x="14" y="14" width="8" height="58" stroke="none" stroke-width="1" stroke-dasharray="" stroke-dashoffset="1" fill="#ECF3F1" fill-opacity="1"/><rect x="64" y="64" width="18" height="8" stroke="none" stroke-width="1" stroke-dasharray="" stroke-dashoffset="1" fill="#ECF3F1" fill-opacity="1"/><rect x="64" y="30" width="18" height="30" stroke="none" stroke-width="1" stroke-dasharray="" stroke-dashoffset="1" fill="#ECF3F1" fill-opacity="1"/><rect x="64" y="18" width="18" height="8" stroke="none" stroke-width="1" stroke-dasharray="" stroke-dashoffset="1" fill="#ECF3F1" fill-opacity="1"/><path d=" M 52 36 C 50.9 36 50 35.1 50 34 C 50 32.9 50.9 32 52 32 C 53.1 32 54 32.9 54 34 C 54 35.1 53.1 36 52 36 Z M 52 68 C 50.9 68 50 67.1 50 66 C 50 64.9 50.9 64 52 64 C 53.1 64 54 64.9 54 66 C 54 67.1 53.1 68 52 68 Z M 60 28 L 44 28 L 44 72 L 60 72 L 60 28 Z" stroke="none" stroke-width="1" stroke-dasharray="" stroke-dashoffset="1" fill="#ECF3F1" fill-opacity="1"/><path d=" M 36 30 L 30 30 L 30 24 L 36 24 L 36 30 Z M 40 20 L 26 20 L 26 72 L 40 72 L 40 20 Z" stroke="none" stroke-width="1" stroke-dasharray="" stroke-dashoffset="1" fill="#ECF3F1" fill-opacity="1"/></svg>