<svg version="1.1" viewBox="0 0 96 96" xmlns="http://www.w3.org/2000/svg" xmlns:xlink="http://www.w3.org/1999/xlink" id="Icons_BankCheck" overflow="hidden"><style>
.MsftOfcThm_Background1_Fill {
 fill:#FFFFFF; 
}
</style>
<path d=" M 4 28 L 4 68 L 92 68 L 92 28 L 4 28 Z M 86 62 L 10 62 L 10 34 L 86 34 L 86 62 Z" stroke="none" stroke-width="1" stroke-dasharray="" stroke-dashoffset="1" fill="#FFFFFF" fill-opacity="1"/><rect x="14" y="46" width="46" height="4" stroke="none" stroke-width="1" stroke-dasharray="" stroke-dashoffset="1" fill="#FFFFFF" fill-opacity="1"/><rect x="14" y="38" width="18" height="4" stroke="none" stroke-width="1" stroke-dasharray="" stroke-dashoffset="1" fill="#FFFFFF" fill-opacity="1"/><rect x="64" y="44" width="18" height="6" stroke="none" stroke-width="1" stroke-dasharray="" stroke-dashoffset="1" fill="#FFFFFF" fill-opacity="1"/><path d=" M 59.2 55.4 C 59 55.6 58.7 56 58.5 56.2 C 58.4 56.1 58.3 55.9 58.1 55.8 C 57 54.8 55.7 54.6 54 55.4 C 53 55.8 52.8 55.6 52.8 55.5 C 52.2 54.6 50.9 54.4 50 55 C 49.1 55.6 48.9 56.9 49.5 57.8 C 50.9 59.7 53.1 60.1 55.6 59 C 55.6 59 55.6 59 55.6 59 C 55.9 59.5 56.6 60.2 58 60.3 C 58.1 60.3 58.2 60.3 58.3 60.3 C 60.2 60.3 61.5 58.9 62.2 58 C 62.4 57.7 62.6 57.5 62.8 57.3 C 63.4 56.7 64.3 56.3 65.3 56 C 65.4 57.4 66.1 58.5 67.3 59.1 C 68.6 59.8 70.3 59.7 71.7 58.8 C 72 58.6 72.2 58.4 72.5 58.2 C 72.5 58.2 72.6 58.1 72.6 58.1 C 72.7 58.2 72.9 58.3 73 58.4 C 74.1 59.1 75.5 59 76.2 58.9 C 76.7 58.9 79 58.9 79 58.9 C 79 58.9 79 58.9 79 58.9 C 80.1 58.9 81 58 81 56.9 C 81 55.8 80.1 54.9 79 54.9 L 77.5 54.9 C 76.9 54.9 76.2 54.9 75.7 55 L 75.7 54.9 C 75.5 54.9 75.2 54.9 75 54.9 C 75 54.9 74.9 54.8 74.9 54.8 C 74.4 54.4 73.3 53.6 71.8 54 C 70.9 54.2 70.3 54.7 69.9 55.1 C 69.8 55.2 69.7 55.3 69.6 55.4 C 69.5 55.4 69.5 55.5 69.4 55.5 C 69.5 54.9 69.6 54 69.1 53.1 C 68.4 52 67.2 51.6 65.3 51.9 C 63.3 52.3 61.5 53.1 60.2 54.3 C 59.8 54.7 59.5 55.1 59.2 55.4 Z" stroke="none" stroke-width="1" stroke-dasharray="" stroke-dashoffset="1" fill="#FFFFFF" fill-opacity="1"/></svg>