<svg version="1.1" viewBox="0 0 96 96" xmlns="http://www.w3.org/2000/svg" xmlns:xlink="http://www.w3.org/1999/xlink" id="Icons_Coins" overflow="hidden"><style>
.MsftOfcThm_Background1_Fill {
 fill:#FFFFFF; 
}
</style>
<path d=" M 86 72 C 86 73.3 84.5 74.5 82 75.4 L 82 71.8 C 83.4 71.4 84.8 70.8 86 70.2 L 86 72 Z M 78 65.4 L 78 61.8 C 79.4 61.4 80.8 60.8 82 60.2 L 82 62 C 82 63.3 80.5 64.5 78 65.4 Z M 78 76.6 C 76.8 76.9 75.4 77.1 74 77.3 L 74 73.4 C 75.3 73.2 76.7 73 78 72.8 L 78 76.6 Z M 70 63.4 C 71.3 63.2 72.7 63 74 62.8 L 74 66.6 C 72.8 66.9 71.4 67.1 70 67.3 L 70 63.4 Z M 70 77.8 C 68.7 77.9 67.4 78 66 78 L 66 74 C 67.2 74 68.6 73.9 70 73.8 L 70 77.8 Z M 62 68 L 62 64 C 63.2 64 64.6 63.9 66 63.8 L 66 67.8 C 64.7 67.9 63.4 67.9 62 68 Z M 62 78 C 60.6 78 59.3 77.9 58 77.8 L 58 74 C 58.7 74 59.3 74 60 74 C 60.6 74 61.3 74 62 74 L 62 78 Z M 54 63.8 C 55.3 63.9 56.6 64 58 64 L 58 68 C 56.6 68 55.3 67.9 54 67.8 L 54 63.8 Z M 54 77.3 C 52.6 77.1 51.2 76.9 50 76.6 L 50 73.4 C 51.3 73.6 52.6 73.7 54 73.8 L 54 77.3 Z M 46 66.6 L 46 62.7 C 47.3 62.9 48.6 63.2 50 63.3 L 50 67.3 C 48.6 67.1 47.2 66.9 46 66.6 Z M 46 75.4 C 43.5 74.4 42 73.2 42 72 L 42 71.8 C 42 71.8 42 71.8 42.1 71.8 C 42.4 71.9 42.6 72 42.9 72 C 43.9 72.3 44.9 72.5 46 72.7 L 46 75.4 Z M 30 61.8 C 30.7 61.8 31.3 61.9 32 61.9 L 32 62 C 32 63.4 32.3 64.8 33 65.9 C 32 65.9 31 65.8 30 65.7 L 30 61.8 Z M 26 49.8 C 27.3 50 28.6 50.3 30 50.4 L 30 54.4 C 28.6 54.2 27.2 54 26 53.7 L 26 49.8 Z M 26 65.3 C 24.6 65.1 23.2 64.9 22 64.6 L 22 60.7 C 23.3 60.9 24.6 61.2 26 61.3 L 26 65.3 Z M 18 49 L 18 47.2 C 19.2 47.8 20.5 48.3 22 48.7 L 22 52.4 C 19.5 51.5 18 50.3 18 49 Z M 18 63.4 C 15.5 62.4 14 61.2 14 60 L 14 58.2 C 15.2 58.8 16.5 59.3 18 59.7 L 18 63.4 Z M 14 32.2 C 15.2 32.8 16.5 33.3 18 33.7 L 18 37.4 C 15.5 36.4 14 35.2 14 34 L 14 32.2 Z M 26 35.4 L 26 39.4 C 24.6 39.2 23.2 39 22 38.7 L 22 34.8 C 23.3 35 24.6 35.2 26 35.4 Z M 36 18 C 48.2 18 58 20.7 58 24 C 58 27.3 48.2 30 36 30 C 23.8 30 14 27.3 14 24 C 14 20.7 23.8 18 36 18 Z M 42 65.4 C 39.5 64.4 38 63.2 38 62 L 38 60.2 C 39.2 60.8 40.5 61.3 42 61.7 L 42 65.4 Z M 54 37.4 L 54 33.8 C 55.4 33.4 56.8 32.8 58 32.2 L 58 34 C 58 35.3 56.5 36.5 54 37.4 Z M 46 39.3 L 46 35.4 C 47.3 35.2 48.7 35 50 34.8 L 50 38.6 C 48.8 38.9 47.4 39.1 46 39.3 Z M 38 40 L 38 36 C 39.2 36 40.6 35.9 42 35.8 L 42 39.8 C 40.7 39.9 39.4 39.9 38 40 Z M 30 39.8 L 30 35.8 C 31.3 35.9 32.6 36 34 36 L 34 40 C 32.6 39.9 31.3 39.9 30 39.8 Z M 82 52 C 82 55.3 72.2 58 60 58 C 47.8 58 38 55.3 38 52 C 38 48.7 47.8 46 60 46 C 72.2 46 82 48.7 82 52 Z M 88 55 L 88 52 C 88 47.3 84.3 43.9 77.1 42 C 74.4 41.3 71.3 40.7 67.8 40.4 C 67.9 40 67.9 39.5 67.9 39 C 67.9 36.2 66.6 33.8 63.9 32 L 63.9 24 C 63.9 19.3 60.2 15.9 53 14 C 48.3 12.7 42.3 12 35.9 12 C 27.5 12 7.9 13.2 7.9 24 L 7.9 34 C 7.9 36.8 9.2 39.2 11.9 41 L 11.9 42.9 C 9.5 44.6 7.9 46.9 7.9 50 L 7.9 60 C 7.9 64.7 11.6 68.1 18.8 70 C 23.5 71.3 29.5 72 35.9 72 C 35.9 76.7 39.6 80.1 46.8 82 C 51.5 83.3 57.5 84 63.9 84 C 72.3 84 91.9 82.8 91.9 72 L 91.9 62 C 92 59.2 90.7 56.8 88 55 Z" stroke="none" stroke-width="1" stroke-dasharray="" stroke-dashoffset="1" fill="#FFFFFF" fill-opacity="1"/></svg>