<svg version="1.1" viewBox="0 0 96 96" xmlns="http://www.w3.org/2000/svg" xmlns:xlink="http://www.w3.org/1999/xlink" id="Icons_Register" overflow="hidden"><path d=" M 48 72 C 49.7 72 51 73.3 51 75 C 51 76.7 49.7 78 48 78 C 46.3 78 45 76.7 45 75 C 45 73.3 46.3 72 48 72 Z M 8 82 L 88 82 L 88 68 L 8 68 L 8 82 Z" stroke="none" stroke-width="1" stroke-dasharray="" stroke-dashoffset="1" fill="#ECF3F1" fill-opacity="1"/><rect x="28" y="34" width="10" height="4" stroke="none" stroke-width="1" stroke-dasharray="" stroke-dashoffset="1" fill="#ECF3F1" fill-opacity="1"/><rect x="28" y="26" width="10" height="4" stroke="none" stroke-width="1" stroke-dasharray="" stroke-dashoffset="1" fill="#ECF3F1" fill-opacity="1"/><rect x="28" y="18" width="10" height="4" stroke="none" stroke-width="1" stroke-dasharray="" stroke-dashoffset="1" fill="#ECF3F1" fill-opacity="1"/><path d=" M 76 42 L 52 42 L 52 32 L 76 32 L 76 42 Z M 42 42 L 24 42 L 24 14 L 42 14 L 42 42 Z M 82 42 L 82 30 C 82 27.8 80.2 26 78 26 L 46 26 L 46 12 C 46 10.9 45.1 10 44 10 L 22 10 C 20.9 10 20 10.9 20 12 L 20 26 L 18 26 C 15.8 26 14 27.8 14 30 L 14 42 L 8 56 L 8 64 L 88 64 L 88 56 L 82 42 Z" stroke="none" stroke-width="1" stroke-dasharray="" stroke-dashoffset="1" fill="#ECF3F1" fill-opacity="1"/></svg>